# xmcd CD database file
#
# Track frame offsets:
#	150
#	11970
#	26770
#	35575
#	45815
#	70890
#	82260
#	92520
#	105432
#	119887
#	132027
#	141672
#	152857
#	165227
#	174727
#	180892
#	196666
#	211764
#
# Disc length: 3055 seconds
#
# Revision: 0
# Processed by: cddbd v1.5.2PL0 Copyright (c) Steve Scherf et al.
# Submitted via: CDex 1.51
#
DISCID=ef0bed12
DTITLE=Celia Cruz - Salsa Queen
DYEAR=1900
DGENRE=Salsa
TTITLE0=Chacha la negra
TTITLE1=Ipso Calypso
TTITLE2=El Cumbanchero
TTITLE3=Bayan Bayande
TTITLE4=Mata Siguaraya
TTITLE5=Rajando la lena
TTITLE6=Baila asi
TTITLE7=ye, ye...oh...oh Guama
TTITLE8=El Platanal de Bartolo
TTITLE9=Chango y Loro
TTITLE10=Refran
TTITLE11=La Chambelona
TTITLE12=Porque Sera
TTITLE13=Asi quiero Morir
TTITLE14=Juana Chambicù
TTITLE15=Prendela Vela
TTITLE16=Contestacion al dinero no es la Vida
TTITLE17=Mas linda es la Rumba
EXTD=
EXTT0=
EXTT1=
EXTT2=
EXTT3=
EXTT4=
EXTT5=
EXTT6=
EXTT7=
EXTT8=
EXTT9=
EXTT10=
EXTT11=
EXTT12=
EXTT13=
EXTT14=
EXTT15=
EXTT16=
EXTT17=
PLAYORDER=
